<svg xmlns="http://www.w3.org/2000/svg" viewBox="0 0 512 512" style="enable-background:new 0 0 512 512" xml:space="preserve"><path style="fill:#d7ebff" d="M256 512C114.84 512 0 397.16 0 256S114.84 0 256 0s256 114.84 256 256-114.84 256-256 256z"/><path style="fill:#c4e2ff" d="M512 256C512 114.84 397.16 0 256 0v512c141.16 0 256-114.84 256-256z"/><path style="fill:#88cc2a" d="M256 478.6c-122.75 0-222.6-99.86-222.6-222.6S133.24 33.4 256 33.4 478.6 133.25 478.6 256 378.76 478.6 256 478.6z"/><path style="fill:#7fb335" d="M478.6 256c0-122.74-99.85-222.6-222.6-222.6v445.2c122.75 0 222.6-99.86 222.6-222.6z"/><path style="fill:#fff" d="M233.74 356.17a33.28 33.28 0 0 1-23.61-9.78l-68.8-68.8a33.38 33.38 0 1 1 47.21-47.22l45.2 45.19 95.28-95.28a33.38 33.38 0 1 1 47.22 47.22l-118.9 118.9a33.28 33.28 0 0 1-23.6 9.77z"/><path style="fill:#edf0f2" d="M329.02 180.28 256 253.3v94.2c.43-.4.93-.69 1.35-1.1l118.89-118.9a33.38 33.38 0 1 0-47.22-47.22z"/></svg>