<svg xmlns="http://www.w3.org/2000/svg" viewBox="0 0 512 512" style="enable-background:new 0 0 512 512" xml:space="preserve"><path style="fill:#dcdcdc" d="M471.15 482.04h32.68V95.32l-54.47-32.68z"/><path style="fill:#eee" d="M8.17 95.32v386.72h462.98V62.64z"/><path style="fill:#fe5f1a" d="m471.15 29.96-21.79 32.68 21.79 32.68h32.68V29.96z"/><path style="fill:#fe834d" d="m422.13 29.96-32.68 32.68 32.68 32.68h49.02V29.96z"/><path style="fill:#969696" d="m389.45 29.96-32.68 32.68 32.68 32.68h32.68V29.96z"/><path style="fill:#b9b9b9" d="M8.17 29.96h381.28v65.36H8.17z"/><path style="fill:#d5f6f5" d="m438.47 128-21.79 215.78 21.79 105.58h32.68V128z"/><path style="fill:#fff" d="M40.85 128h397.62v321.36H40.85z"/><path style="fill:#fe5f1a" d="M256 181.38v214.6c59.26 0 107.3-48.04 107.3-107.3s-48.04-107.3-107.3-107.3z"/><path style="fill:#fe834d" d="M330.62 288.68c0-59.26-33.4-107.3-74.62-107.3-59.26 0-107.3 48.04-107.3 107.3s48.04 107.3 107.3 107.3c41.21 0 74.62-48.04 74.62-107.3z"/><path d="M503.83 21.79H8.17A8.17 8.17 0 0 0 0 29.96v452.08a8.17 8.17 0 0 0 8.17 8.17h495.66a8.17 8.17 0 0 0 8.17-8.17V29.96a8.17 8.17 0 0 0-8.17-8.17zm-8.17 65.36H430.3V38.13h65.36v49.02zm-81.7-49.02v49.02H16.34V38.13h397.62zM16.34 473.87V103.5h479.32v370.38H16.34z"/><path d="M471.15 119.83H40.85a8.17 8.17 0 0 0-8.17 8.17v256a8.17 8.17 0 1 0 16.34 0V136.17h413.96v305.02H49.02v-24.51a8.17 8.17 0 1 0-16.34 0v32.68a8.17 8.17 0 0 0 8.17 8.17h430.3a8.17 8.17 0 0 0 8.17-8.17V128a8.17 8.17 0 0 0-8.17-8.17z"/><circle cx="462.98" cy="62.64" r="8.17"/><path d="M174.3 218.66a8.17 8.17 0 0 0-11.43 1.75 114.57 114.57 0 0 0-22.34 68.27c0 63.67 51.8 115.47 115.47 115.47s115.47-51.8 115.47-115.47S319.67 173.21 256 173.21c-24.75 0-48.36 7.73-68.27 22.34a8.17 8.17 0 1 0 9.67 13.17 98.35 98.35 0 0 1 58.6-19.17c54.66 0 99.13 44.47 99.13 99.13s-44.47 99.13-99.13 99.13-99.13-44.47-99.13-99.13a98.35 98.35 0 0 1 19.17-58.6 8.17 8.17 0 0 0-1.75-11.42z"/><path d="M205.16 339.52a8.14 8.14 0 0 0 11.55 0L256 300.24l39.28 39.28a8.15 8.15 0 0 0 11.56 0 8.17 8.17 0 0 0 0-11.55l-39.28-39.29 39.28-39.29a8.17 8.17 0 1 0-11.55-11.55L256 277.13l-39.29-39.29a8.17 8.17 0 0 0-11.55 11.55l39.28 39.3-39.28 39.28a8.17 8.17 0 0 0 0 11.55z"/></svg>